<?xml version="1.0" encoding="UTF-8" standalone="no"?>
<!DOCTYPE svg PUBLIC "-//W3C//DTD SVG 1.1//EN"
 "http://www.w3.org/Graphics/SVG/1.1/DTD/svg11.dtd">
<!-- Generated by graphviz version 15.1.0 (20260618.0150)
 -->
<!-- Title: SageBookRAG Pages: 1 -->
<svg width="1499pt" height="790pt"
 viewBox="0.00 0.00 1499.00 790.00" xmlns="http://www.w3.org/2000/svg" xmlns:xlink="http://www.w3.org/1999/xlink">
<g id="graph0" class="graph" transform="scale(1 1) rotate(0) translate(20.16 769.41)">
<title>SageBookRAG</title>
<polygon fill="#f8fafc" stroke="none" points="-20.16,20.16 -20.16,-769.41 1478.39,-769.41 1478.39,20.16 -20.16,20.16"/>
<text xml:space="preserve" text-anchor="middle" x="729.11" y="-726.25" font-family="PingFang SC" font-size="20.00">Sage 长书 Agentic RAG 可插拔检索架构</text>
<g id="clust1" class="cluster">
<title>cluster_truth</title>
<path fill="#f8fafc" stroke="#10b981" d="M496.78,-529C496.78,-529 693.38,-529 693.38,-529 699.38,-529 705.38,-535 705.38,-541 705.38,-541 705.38,-614 705.38,-614 705.38,-620 699.38,-626 693.38,-626 693.38,-626 496.78,-626 496.78,-626 490.78,-626 484.78,-620 484.78,-614 484.78,-614 484.78,-541 484.78,-541 484.78,-535 490.78,-529 496.78,-529"/>
<text xml:space="preserve" text-anchor="middle" x="595.08" y="-603" font-family="PingFang SC" font-size="20.00">本地知识真相层</text>
</g>
<g id="clust2" class="cluster">
<title>cluster_projection</title>
<path fill="#f8fafc" stroke="#3b82f6" d="M878.18,-471C878.18,-471 1425.1,-471 1425.1,-471 1431.1,-471 1437.1,-477 1437.1,-483 1437.1,-483 1437.1,-692 1437.1,-692 1437.1,-698 1431.1,-704 1425.1,-704 1425.1,-704 878.18,-704 878.18,-704 872.18,-704 866.18,-698 866.18,-692 866.18,-692 866.18,-483 866.18,-483 866.18,-477 872.18,-471 878.18,-471"/>
<text xml:space="preserve" text-anchor="middle" x="1151.64" y="-681" font-family="PingFang SC" font-size="20.00">PostgreSQL Search Projection（可重建）</text>
</g>
<g id="clust3" class="cluster">
<title>cluster_harness</title>
<path fill="#f8fafc" stroke="#94a3b8" stroke-dasharray="5,2" d="M174.68,-136C174.68,-136 1438.23,-136 1438.23,-136 1444.23,-136 1450.23,-142 1450.23,-148 1450.23,-148 1450.23,-213 1450.23,-213 1450.23,-219 1444.23,-225 1438.23,-225 1438.23,-225 174.68,-225 174.68,-225 168.68,-225 162.68,-219 162.68,-213 162.68,-213 162.68,-148 162.68,-148 162.68,-142 168.68,-136 174.68,-136"/>
<text xml:space="preserve" text-anchor="middle" x="806.45" y="-202" font-family="PingFang SC" font-size="20.00">共享 Sage Harness（与检索策略解耦）</text>
</g>
<g id="clust4" class="cluster">
<title>cluster_eval</title>
<path fill="#f8fafc" stroke="#a78bfa" stroke-dasharray="5,2" d="M35.98,-8C35.98,-8 379.73,-8 379.73,-8 385.73,-8 391.73,-14 391.73,-20 391.73,-20 391.73,-109 391.73,-109 391.73,-115 385.73,-121 379.73,-121 379.73,-121 35.98,-121 35.98,-121 29.98,-121 23.98,-115 23.98,-109 23.98,-109 23.98,-20 23.98,-20 23.98,-14 29.98,-8 35.98,-8"/>
<text xml:space="preserve" text-anchor="middle" x="207.85" y="-98" font-family="PingFang SC" font-size="20.00">Offline Eval 4+2（不进入用户同步链）</text>
</g>
<!-- user -->
<g id="node1" class="node">
<title>user</title>
<path fill="#eff6ff" stroke="#60a5fa" d="M239.9,-577C239.9,-577 174.8,-577 174.8,-577 168.8,-577 162.8,-571 162.8,-565 162.8,-565 162.8,-553 162.8,-553 162.8,-547 168.8,-541 174.8,-541 174.8,-541 239.9,-541 239.9,-541 245.9,-541 251.9,-547 251.9,-553 251.9,-553 251.9,-565 251.9,-565 251.9,-571 245.9,-577 239.9,-577"/>
<text xml:space="preserve" text-anchor="middle" x="207.35" y="-556.42" font-family="PingFang SC" font-size="11.00">用户学习问题</text>
</g>
<!-- sqlite -->
<g id="node2" class="node">
<title>sqlite</title>
<path fill="#ecfdf5" stroke="#34d399" d="M685.38,-581.23C685.38,-581.23 504.78,-581.23 504.78,-581.23 498.78,-581.23 492.78,-575.23 492.78,-569.23 492.78,-569.23 492.78,-548.77 492.78,-548.77 492.78,-542.77 498.78,-536.77 504.78,-536.77 504.78,-536.77 685.38,-536.77 685.38,-536.77 691.38,-536.77 697.38,-542.77 697.38,-548.77 697.38,-548.77 697.38,-569.23 697.38,-569.23 697.38,-575.23 691.38,-581.23 685.38,-581.23"/>
<text xml:space="preserve" text-anchor="middle" x="595.08" y="-564.3" font-family="PingFang SC" font-size="11.00">SQLite Canonical</text>
<text xml:space="preserve" text-anchor="middle" x="595.08" y="-548.55" font-family="PingFang SC" font-size="11.00">Source / Revision / Proposal / Wiki</text>
</g>
<!-- user&#45;&gt;sqlite -->
<g id="edge6" class="edge">
<title>user&#45;&gt;sqlite</title>
<path fill="none" stroke="#64748b" stroke-width="1.3" d="M252.23,-559C308.13,-559 406.72,-559 483.7,-559"/>
<polygon fill="#64748b" stroke="#64748b" stroke-width="1.3" points="483.54,-561.45 490.54,-559 483.54,-556.55 483.54,-561.45"/>
<text xml:space="preserve" text-anchor="middle" x="431.98" y="-563.95" font-family="PingFang SC" font-size="9.00">摄取 / 学习范围</text>
</g>
<!-- intent -->
<g id="node13" class="node">
<title>intent</title>
<path fill="#ffffff" stroke="#cbd5e1" d="M232.03,-180C232.03,-180 182.68,-180 182.68,-180 176.68,-180 170.68,-174 170.68,-168 170.68,-168 170.68,-156 170.68,-156 170.68,-150 176.68,-144 182.68,-144 182.68,-144 232.03,-144 232.03,-144 238.03,-144 244.03,-150 244.03,-156 244.03,-156 244.03,-168 244.03,-168 244.03,-174 238.03,-180 232.03,-180"/>
<text xml:space="preserve" text-anchor="middle" x="207.35" y="-159.43" font-family="PingFang SC" font-size="11.00">TaskIntent</text>
</g>
<!-- user&#45;&gt;intent -->
<g id="edge20" class="edge">
<title>user&#45;&gt;intent</title>
<path fill="none" stroke="#64748b" stroke-width="1.3" stroke-dasharray="1,5" d="M180.74,-540.74C115.7,-493.72 -42.25,-363.57 10.98,-242 35.63,-185.69 111.67,-168.8 161.57,-163.87"/>
<polygon fill="#64748b" stroke="#64748b" stroke-width="1.3" points="161.54,-166.33 168.3,-163.27 161.11,-161.45 161.54,-166.33"/>
</g>
<!-- sparse -->
<g id="node3" class="node">
<title>sparse</title>
<path fill="#eff6ff" stroke="#60a5fa" d="M967.03,-523C967.03,-523 886.18,-523 886.18,-523 880.18,-523 874.18,-517 874.18,-511 874.18,-511 874.18,-499 874.18,-499 874.18,-493 880.18,-487 886.18,-487 886.18,-487 967.03,-487 967.03,-487 973.03,-487 979.03,-493 979.03,-499 979.03,-499 979.03,-511 979.03,-511 979.03,-517 973.03,-523 967.03,-523"/>
<text xml:space="preserve" text-anchor="middle" x="926.6" y="-502.43" font-family="PingFang SC" font-size="11.00">Sparse 策略接口</text>
</g>
<!-- sqlite&#45;&gt;sparse -->
<g id="edge7" class="edge">
<title>sqlite&#45;&gt;sparse</title>
<path fill="none" stroke="#64748b" stroke-width="1.3" stroke-dasharray="5,2" d="M697.64,-542.36C752.53,-533.36 818.46,-522.56 865.27,-514.89"/>
<polygon fill="#64748b" stroke="#64748b" stroke-width="1.3" points="865.62,-517.31 872.13,-513.76 864.82,-512.48 865.62,-517.31"/>
<text xml:space="preserve" text-anchor="middle" x="771.68" y="-541.79" font-family="PingFang SC" font-size="9.00">rebuildable projection</text>
</g>
<!-- dense -->
<g id="node6" class="node">
<title>dense</title>
<path fill="#f5f3ff" stroke="#a78bfa" d="M1265.63,-591.23C1265.63,-591.23 1124.78,-591.23 1124.78,-591.23 1118.78,-591.23 1112.78,-585.23 1112.78,-579.23 1112.78,-579.23 1112.78,-558.77 1112.78,-558.77 1112.78,-552.77 1118.78,-546.77 1124.78,-546.77 1124.78,-546.77 1265.63,-546.77 1265.63,-546.77 1271.63,-546.77 1277.63,-552.77 1277.63,-558.77 1277.63,-558.77 1277.63,-579.23 1277.63,-579.23 1277.63,-585.23 1271.63,-591.23 1265.63,-591.23"/>
<text xml:space="preserve" text-anchor="middle" x="1195.2" y="-574.3" font-family="PingFang SC" font-size="11.00">Dense 策略接口</text>
<text xml:space="preserve" text-anchor="middle" x="1195.2" y="-558.55" font-family="PingFang SC" font-size="11.00">pgvector exact + 豆包 2048</text>
</g>
<!-- sqlite&#45;&gt;dense -->
<g id="edge8" class="edge">
<title>sqlite&#45;&gt;dense</title>
<path fill="none" stroke="#64748b" stroke-width="1.3" stroke-dasharray="5,2" d="M697.54,-560.7C811.45,-562.6 994.57,-565.66 1103.76,-567.49"/>
<polygon fill="#64748b" stroke="#64748b" stroke-width="1.3" points="1103.46,-569.93 1110.5,-567.6 1103.54,-565.03 1103.46,-569.93"/>
</g>
<!-- native -->
<g id="node4" class="node">
<title>native</title>
<path fill="#f0fdfa" stroke="#2dd4bf" d="M1254.38,-523.23C1254.38,-523.23 1136.03,-523.23 1136.03,-523.23 1130.03,-523.23 1124.03,-517.23 1124.03,-511.23 1124.03,-511.23 1124.03,-490.77 1124.03,-490.77 1124.03,-484.77 1130.03,-478.77 1136.03,-478.77 1136.03,-478.77 1254.38,-478.77 1254.38,-478.77 1260.38,-478.77 1266.38,-484.77 1266.38,-490.77 1266.38,-490.77 1266.38,-511.23 1266.38,-511.23 1266.38,-517.23 1260.38,-523.23 1254.38,-523.23"/>
<text xml:space="preserve" text-anchor="middle" x="1195.2" y="-506.3" font-family="PingFang SC" font-size="11.00">默认</text>
<text xml:space="preserve" text-anchor="middle" x="1195.2" y="-490.55" font-family="PingFang SC" font-size="11.00">native GIN + ts_rank_cd</text>
</g>
<!-- sparse&#45;&gt;native -->
<g id="edge1" class="edge">
<title>sparse&#45;&gt;native</title>
<path fill="none" stroke="#64748b" stroke-width="1.3" d="M979.32,-503.66C997.21,-503.24 1017.37,-502.8 1035.78,-502.5 1061.49,-502.08 1089.55,-501.77 1114.81,-501.54"/>
<polygon fill="#64748b" stroke="#64748b" stroke-width="1.3" points="1114.67,-503.99 1121.65,-501.48 1114.63,-499.09 1114.67,-503.99"/>
<text xml:space="preserve" text-anchor="middle" x="1058.28" y="-507.45" font-family="PingFang SC" font-size="9.00">默认实现</text>
</g>
<!-- bm25 -->
<g id="node5" class="node">
<title>bm25</title>
<path fill="#fff7ed" stroke="#fb923c" d="M1246.5,-659.23C1246.5,-659.23 1143.9,-659.23 1143.9,-659.23 1137.9,-659.23 1131.9,-653.23 1131.9,-647.23 1131.9,-647.23 1131.9,-626.77 1131.9,-626.77 1131.9,-620.77 1137.9,-614.77 1143.9,-614.77 1143.9,-614.77 1246.5,-614.77 1246.5,-614.77 1252.5,-614.77 1258.5,-620.77 1258.5,-626.77 1258.5,-626.77 1258.5,-647.23 1258.5,-647.23 1258.5,-653.23 1252.5,-659.23 1246.5,-659.23"/>
<text xml:space="preserve" text-anchor="middle" x="1195.2" y="-642.3" font-family="PingFang SC" font-size="11.00">可选实验</text>
<text xml:space="preserve" text-anchor="middle" x="1195.2" y="-626.55" font-family="PingFang SC" font-size="11.00">pg_textsearch BM25</text>
</g>
<!-- sparse&#45;&gt;bm25 -->
<g id="edge2" class="edge">
<title>sparse&#45;&gt;bm25</title>
<path fill="none" stroke="#64748b" stroke-width="1.3" d="M958.37,-523.42C993.57,-544.12 1053.26,-578.09 1106.78,-603 1112.7,-605.75 1118.9,-608.48 1125.17,-611.12"/>
<polygon fill="#64748b" stroke="#64748b" stroke-width="1.3" points="1123.89,-613.24 1131.29,-613.66 1125.76,-608.71 1123.89,-613.24"/>
<text xml:space="preserve" text-anchor="middle" x="1058.28" y="-593.38" font-family="PingFang SC" font-size="9.00">可替换实现</text>
</g>
<!-- rrf -->
<g id="node7" class="node">
<title>rrf</title>
<path fill="#ffffff" stroke="#64748b" d="M1417.1,-553C1417.1,-553 1361.75,-553 1361.75,-553 1355.75,-553 1349.75,-547 1349.75,-541 1349.75,-541 1349.75,-529 1349.75,-529 1349.75,-523 1355.75,-517 1361.75,-517 1361.75,-517 1417.1,-517 1417.1,-517 1423.1,-517 1429.1,-523 1429.1,-529 1429.1,-529 1429.1,-541 1429.1,-541 1429.1,-547 1423.1,-553 1417.1,-553"/>
<text xml:space="preserve" text-anchor="middle" x="1389.43" y="-532.42" font-family="PingFang SC" font-size="11.00">RRF Fusion</text>
</g>
<!-- native&#45;&gt;rrf -->
<g id="edge3" class="edge">
<title>native&#45;&gt;rrf</title>
<path fill="none" stroke="#64748b" stroke-width="1.3" d="M1266.69,-513.47C1291.38,-517.83 1318.5,-522.63 1340.87,-526.59"/>
<polygon fill="#64748b" stroke="#64748b" stroke-width="1.3" points="1340.25,-528.97 1347.57,-527.77 1341.1,-524.14 1340.25,-528.97"/>
</g>
<!-- bm25&#45;&gt;rrf -->
<g id="edge4" class="edge">
<title>bm25&#45;&gt;rrf</title>
<path fill="none" stroke="#64748b" stroke-width="1.3" d="M1258.98,-614.39C1267.39,-610.84 1275.8,-607.01 1283.63,-603 1309.08,-589.97 1336.1,-572.33 1356.34,-558.28"/>
<polygon fill="#64748b" stroke="#64748b" stroke-width="1.3" points="1357.53,-560.44 1361.86,-554.41 1354.72,-556.43 1357.53,-560.44"/>
</g>
<!-- dense&#45;&gt;rrf -->
<g id="edge5" class="edge">
<title>dense&#45;&gt;rrf</title>
<path fill="none" stroke="#64748b" stroke-width="1.3" d="M1278,-554.53C1299.35,-550.76 1321.66,-546.81 1340.6,-543.46"/>
<polygon fill="#64748b" stroke="#64748b" stroke-width="1.3" points="1340.92,-545.89 1347.39,-542.26 1340.07,-541.07 1340.92,-545.89"/>
</g>
<!-- bundle -->
<g id="node8" class="node">
<title>bundle</title>
<path fill="#ecfdf5" stroke="#34d399" d="M254.9,-286.23C254.9,-286.23 159.8,-286.23 159.8,-286.23 153.8,-286.23 147.8,-280.23 147.8,-274.23 147.8,-274.23 147.8,-253.77 147.8,-253.77 147.8,-247.77 153.8,-241.77 159.8,-241.77 159.8,-241.77 254.9,-241.77 254.9,-241.77 260.9,-241.77 266.9,-247.77 266.9,-253.77 266.9,-253.77 266.9,-274.23 266.9,-274.23 266.9,-280.23 260.9,-286.23 254.9,-286.23"/>
<text xml:space="preserve" text-anchor="middle" x="207.35" y="-269.3" font-family="PingFang SC" font-size="11.00">EvidenceBundle</text>
<text xml:space="preserve" text-anchor="middle" x="207.35" y="-253.55" font-family="PingFang SC" font-size="11.00">有界证据 + citation</text>
</g>
<!-- rrf&#45;&gt;bundle -->
<g id="edge9" class="edge">
<title>rrf&#45;&gt;bundle</title>
<path fill="none" stroke="#64748b" stroke-width="1.3" d="M1385.51,-516.92C1374.16,-453.65 1326.97,-246 1196.2,-246 594.08,-246 594.08,-246 594.08,-246 482.41,-246 352.74,-253.62 275.79,-258.95"/>
<polygon fill="#64748b" stroke="#64748b" stroke-width="1.3" points="275.9,-256.48 269.09,-259.41 276.25,-261.37 275.9,-256.48"/>
</g>
<!-- eval -->
<g id="node18" class="node">
<title>eval</title>
<path fill="#f5f3ff" stroke="#a78bfa" d="M302.53,-76.11C302.53,-76.11 112.18,-76.11 112.18,-76.11 106.18,-76.11 100.18,-70.11 100.18,-64.11 100.18,-64.11 100.18,-27.89 100.18,-27.89 100.18,-21.89 106.18,-15.89 112.18,-15.89 112.18,-15.89 302.53,-15.89 302.53,-15.89 308.53,-15.89 314.53,-21.89 314.53,-27.89 314.53,-27.89 314.53,-64.11 314.53,-64.11 314.53,-70.11 308.53,-76.11 302.53,-76.11"/>
<text xml:space="preserve" text-anchor="middle" x="207.35" y="-59.17" font-family="PingFang SC" font-size="11.00">Claim Coverage | Answer Correctness</text>
<text xml:space="preserve" text-anchor="middle" x="207.35" y="-43.42" font-family="PingFang SC" font-size="11.00">Correct Abstention | Recovery Gain</text>
<text xml:space="preserve" text-anchor="middle" x="207.35" y="-27.68" font-family="PingFang SC" font-size="11.00">Provider Failure | P95</text>
</g>
<!-- rrf&#45;&gt;eval -->
<g id="edge25" class="edge">
<title>rrf&#45;&gt;eval</title>
<path fill="none" stroke="#a78bfa" stroke-width="1.3" stroke-dasharray="5,2" d="M1386.48,-516.76C1378.4,-444.73 1344.99,-181.45 1283.63,-130 981.68,123.17 792.57,-91.73 399.73,-61 375.14,-59.08 348.76,-57.01 323.7,-55.05"/>
<polygon fill="#a78bfa" stroke="#a78bfa" stroke-width="1.3" points="324.02,-52.61 316.85,-54.51 323.64,-57.5 324.02,-52.61"/>
</g>
<!-- gate -->
<g id="node9" class="node">
<title>gate</title>
<path fill="#fff7ed" stroke="#fb923c" d="M584.03,-386.78C584.03,-386.78 501.28,-351.68 501.28,-351.68 495.75,-349.34 495.75,-344.66 501.28,-342.32 501.28,-342.32 584.03,-307.22 584.03,-307.22 589.56,-304.88 600.6,-304.88 606.13,-307.22 606.13,-307.22 688.88,-342.32 688.88,-342.32 694.41,-344.66 694.41,-349.34 688.88,-351.68 688.88,-351.68 606.13,-386.78 606.13,-386.78 600.6,-389.12 589.56,-389.12 584.03,-386.78"/>
<text xml:space="preserve" text-anchor="middle" x="595.08" y="-352.3" font-family="PingFang SC" font-size="11.00">Sufficiency Gate</text>
<text xml:space="preserve" text-anchor="middle" x="595.08" y="-336.55" font-family="PingFang SC" font-size="11.00">证据充分性</text>
</g>
<!-- bundle&#45;&gt;gate -->
<g id="edge10" class="edge">
<title>bundle&#45;&gt;gate</title>
<path fill="none" stroke="#64748b" stroke-width="1.3" d="M267.36,-276.7C334.01,-291.04 442.75,-314.44 516.3,-330.26"/>
<polygon fill="#64748b" stroke="#64748b" stroke-width="1.3" points="515.36,-332.57 522.72,-331.64 516.39,-327.78 515.36,-332.57"/>
</g>
<!-- answer -->
<g id="node10" class="node">
<title>answer</title>
<path fill="#ecfdf5" stroke="#10b981" d="M968.53,-395.23C968.53,-395.23 884.68,-395.23 884.68,-395.23 878.68,-395.23 872.68,-389.23 872.68,-383.23 872.68,-383.23 872.68,-362.77 872.68,-362.77 872.68,-356.77 878.68,-350.77 884.68,-350.77 884.68,-350.77 968.53,-350.77 968.53,-350.77 974.53,-350.77 980.53,-356.77 980.53,-362.77 980.53,-362.77 980.53,-383.23 980.53,-383.23 980.53,-389.23 974.53,-395.23 968.53,-395.23"/>
<text xml:space="preserve" text-anchor="middle" x="926.6" y="-378.3" font-family="PingFang SC" font-size="11.00">LLMWiki Answer</text>
<text xml:space="preserve" text-anchor="middle" x="926.6" y="-362.55" font-family="PingFang SC" font-size="11.00">最终回答</text>
</g>
<!-- gate&#45;&gt;answer -->
<g id="edge11" class="edge">
<title>gate&#45;&gt;answer</title>
<path fill="none" stroke="#10b981" stroke-width="1.3" d="M684.39,-353.97C741.04,-358.44 813.18,-364.13 863.76,-368.12"/>
<polygon fill="#10b981" stroke="#10b981" stroke-width="1.3" points="863.49,-370.56 870.66,-368.66 863.88,-365.67 863.49,-370.56"/>
<text xml:space="preserve" text-anchor="middle" x="771.68" y="-368.8" font-family="PingFang SC" font-size="9.00">证据充分</text>
</g>
<!-- rewrite -->
<g id="node11" class="node">
<title>rewrite</title>
<path fill="#eff6ff" stroke="#60a5fa" d="M997.78,-327.23C997.78,-327.23 855.43,-327.23 855.43,-327.23 849.43,-327.23 843.43,-321.23 843.43,-315.23 843.43,-315.23 843.43,-294.77 843.43,-294.77 843.43,-288.77 849.43,-282.77 855.43,-282.77 855.43,-282.77 997.78,-282.77 997.78,-282.77 1003.78,-282.77 1009.78,-288.77 1009.78,-294.77 1009.78,-294.77 1009.78,-315.23 1009.78,-315.23 1009.78,-321.23 1003.78,-327.23 997.78,-327.23"/>
<text xml:space="preserve" text-anchor="middle" x="926.6" y="-310.3" font-family="PingFang SC" font-size="11.00">缺失 Claim</text>
<text xml:space="preserve" text-anchor="middle" x="926.6" y="-294.55" font-family="PingFang SC" font-size="11.00">一次有界 Rewrite / 二次检索</text>
</g>
<!-- gate&#45;&gt;rewrite -->
<g id="edge12" class="edge">
<title>gate&#45;&gt;rewrite</title>
<path fill="none" stroke="#3b82f6" stroke-width="1.3" d="M676.69,-336.73C724.32,-330.65 784.78,-322.95 834.19,-316.65"/>
<polygon fill="#3b82f6" stroke="#3b82f6" stroke-width="1.3" points="834.38,-319.1 841.01,-315.78 833.76,-314.24 834.38,-319.1"/>
<text xml:space="preserve" text-anchor="middle" x="771.68" y="-334.71" font-family="PingFang SC" font-size="9.00">缺失事实</text>
</g>
<!-- abstain -->
<g id="node12" class="node">
<title>abstain</title>
<path fill="#fff1f2" stroke="#fb7185" d="M947.9,-463.23C947.9,-463.23 905.3,-463.23 905.3,-463.23 899.3,-463.23 893.3,-457.23 893.3,-451.23 893.3,-451.23 893.3,-430.77 893.3,-430.77 893.3,-424.77 899.3,-418.77 905.3,-418.77 905.3,-418.77 947.9,-418.77 947.9,-418.77 953.9,-418.77 959.9,-424.77 959.9,-430.77 959.9,-430.77 959.9,-451.23 959.9,-451.23 959.9,-457.23 953.9,-463.23 947.9,-463.23"/>
<text xml:space="preserve" text-anchor="middle" x="926.6" y="-446.3" font-family="PingFang SC" font-size="11.00">仍不足</text>
<text xml:space="preserve" text-anchor="middle" x="926.6" y="-430.55" font-family="PingFang SC" font-size="11.00">诚实拒答</text>
</g>
<!-- gate&#45;&gt;abstain -->
<g id="edge15" class="edge">
<title>gate&#45;&gt;abstain</title>
<path fill="none" stroke="#ef4444" stroke-width="1.3" d="M643.42,-371.47C667.57,-383.09 697.74,-396.3 725.93,-405 779.28,-421.46 843.12,-431.34 884,-436.47"/>
<polygon fill="#ef4444" stroke="#ef4444" stroke-width="1.3" points="883.67,-438.9 890.92,-437.32 884.26,-434.04 883.67,-438.9"/>
<text xml:space="preserve" text-anchor="middle" x="771.68" y="-430.45" font-family="PingFang SC" font-size="9.00">无新增证据 / 预算耗尽</text>
</g>
<!-- timeline -->
<g id="node17" class="node">
<title>timeline</title>
<path fill="#ffffff" stroke="#cbd5e1" d="M1430.23,-180C1430.23,-180 1348.63,-180 1348.63,-180 1342.63,-180 1336.63,-174 1336.63,-168 1336.63,-168 1336.63,-156 1336.63,-156 1336.63,-150 1342.63,-144 1348.63,-144 1348.63,-144 1430.23,-144 1430.23,-144 1436.23,-144 1442.23,-150 1442.23,-156 1442.23,-156 1442.23,-168 1442.23,-168 1442.23,-174 1436.23,-180 1430.23,-180"/>
<text xml:space="preserve" text-anchor="middle" x="1389.43" y="-159.43" font-family="PingFang SC" font-size="11.00">Timeline / Trace</text>
</g>
<!-- answer&#45;&gt;timeline -->
<g id="edge23" class="edge">
<title>answer&#45;&gt;timeline</title>
<path fill="none" stroke="#64748b" stroke-width="1.3" stroke-dasharray="1,5" d="M980.62,-357.85C991.17,-353.06 1001.52,-346.89 1009.78,-339 1083.25,-268.83 1021.04,-186.51 1106.78,-132 1178.72,-86.27 1282.37,-116.22 1341.81,-140.34"/>
<polygon fill="#64748b" stroke="#64748b" stroke-width="1.3" points="1340.67,-142.52 1348.07,-142.94 1342.55,-137.99 1340.67,-142.52"/>
</g>
<!-- answer&#45;&gt;eval -->
<g id="edge26" class="edge">
<title>answer&#45;&gt;eval</title>
<path fill="none" stroke="#a78bfa" stroke-width="1.3" stroke-dasharray="5,2" d="M872.56,-356.52C862.26,-351.86 852.01,-346.07 843.43,-339 757.55,-268.17 795.65,-195.15 705.38,-130 593.89,-49.53 432.03,-36.2 323.62,-37.9"/>
<polygon fill="#a78bfa" stroke="#a78bfa" stroke-width="1.3" points="323.86,-35.44 316.9,-38.03 323.95,-40.34 323.86,-35.44"/>
</g>
<!-- rewrite&#45;&gt;sparse -->
<g id="edge13" class="edge">
<title>rewrite&#45;&gt;sparse</title>
<path fill="none" stroke="#3b82f6" stroke-width="1.3" d="M848.62,-327.56C821.04,-339.96 793.43,-358.64 779.5,-386.25 756.54,-431.78 815.62,-465.78 865.62,-485.48"/>
<polygon fill="#3b82f6" stroke="#3b82f6" stroke-width="1.3" points="864.62,-487.72 872.03,-487.93 866.37,-483.14 864.62,-487.72"/>
<text xml:space="preserve" text-anchor="middle" x="771.68" y="-391.2" font-family="PingFang SC" font-size="9.00">最多一轮</text>
</g>
<!-- rewrite&#45;&gt;dense -->
<g id="edge14" class="edge">
<title>rewrite&#45;&gt;dense</title>
<path fill="none" stroke="#3b82f6" stroke-width="1.3" d="M994.35,-327.52C999.91,-330.87 1005.16,-334.68 1009.78,-339 1045.28,-372.19 1070.93,-502.19 1106.78,-535 1109.42,-537.41 1112.24,-539.66 1115.21,-541.75"/>
<polygon fill="#3b82f6" stroke="#3b82f6" stroke-width="1.3" points="1113.49,-543.56 1120.7,-545.3 1116.15,-539.45 1113.49,-543.56"/>
</g>
<!-- dag -->
<g id="node15" class="node">
<title>dag</title>
<path fill="#ffffff" stroke="#cbd5e1" d="M967.4,-180C967.4,-180 885.8,-180 885.8,-180 879.8,-180 873.8,-174 873.8,-168 873.8,-168 873.8,-156 873.8,-156 873.8,-150 879.8,-144 885.8,-144 885.8,-144 967.4,-144 967.4,-144 973.4,-144 979.4,-150 979.4,-156 979.4,-156 979.4,-168 979.4,-168 979.4,-174 973.4,-180 967.4,-180"/>
<text xml:space="preserve" text-anchor="middle" x="926.6" y="-159.43" font-family="PingFang SC" font-size="11.00">DAG / Subagent</text>
</g>
<!-- rewrite&#45;&gt;dag -->
<g id="edge22" class="edge">
<title>rewrite&#45;&gt;dag</title>
<path fill="none" stroke="#64748b" stroke-width="1.3" stroke-dasharray="1,5" d="M926.6,-282.43C926.6,-257.2 926.6,-216.35 926.6,-189.33"/>
<polygon fill="#64748b" stroke="#64748b" stroke-width="1.3" points="929.06,-189.37 926.6,-182.37 924.16,-189.37 929.06,-189.37"/>
<text xml:space="preserve" text-anchor="middle" x="916.85" y="-229.58" font-family="PingFang SC" font-size="9.00">只读 Research children</text>
</g>
<!-- abstain&#45;&gt;timeline -->
<g id="edge24" class="edge">
<title>abstain&#45;&gt;timeline</title>
<path fill="none" stroke="#64748b" stroke-width="1.3" stroke-dasharray="1,5" d="M960.11,-434.28C976.92,-429.3 996.61,-420.89 1009.78,-407 1098.95,-312.95 1002.67,-209.19 1106.78,-132 1179.63,-77.99 1222.38,-102.12 1310.63,-123 1324.88,-126.37 1339.48,-132.78 1352.14,-139.44"/>
<polygon fill="#64748b" stroke="#64748b" stroke-width="1.3" points="1350.7,-141.44 1358.02,-142.65 1353.05,-137.14 1350.7,-141.44"/>
</g>
<!-- abstain&#45;&gt;eval -->
<g id="edge27" class="edge">
<title>abstain&#45;&gt;eval</title>
<path fill="none" stroke="#a78bfa" stroke-width="1.3" stroke-dasharray="5,2" d="M893.13,-434.74C876.13,-429.88 856.24,-421.44 843.43,-407 814.95,-374.89 834.53,-353.36 817.43,-314 779.28,-226.18 778.53,-191.78 705.38,-130 596.6,-38.13 542.05,-29.54 399.73,-34 375.1,-34.77 348.71,-36.1 323.64,-37.6"/>
<polygon fill="#a78bfa" stroke="#a78bfa" stroke-width="1.3" points="323.64,-35.14 316.8,-38.02 323.94,-40.04 323.64,-35.14"/>
</g>
<!-- context -->
<g id="node14" class="node">
<title>context</title>
<path fill="#ffffff" stroke="#cbd5e1" d="M635.5,-180C635.5,-180 554.65,-180 554.65,-180 548.65,-180 542.65,-174 542.65,-168 542.65,-168 542.65,-156 542.65,-156 542.65,-150 548.65,-144 554.65,-144 554.65,-144 635.5,-144 635.5,-144 641.5,-144 647.5,-150 647.5,-156 647.5,-156 647.5,-168 647.5,-168 647.5,-174 641.5,-180 635.5,-180"/>
<text xml:space="preserve" text-anchor="middle" x="595.08" y="-159.43" font-family="PingFang SC" font-size="11.00">TurnContextPlan</text>
</g>
<!-- intent&#45;&gt;context -->
<g id="edge16" class="edge">
<title>intent&#45;&gt;context</title>
<path fill="none" stroke="#64748b" stroke-width="1.3" d="M244.3,-162C310.52,-162 452.45,-162 533.69,-162"/>
<polygon fill="#64748b" stroke="#64748b" stroke-width="1.3" points="533.36,-164.45 540.36,-162 533.36,-159.55 533.36,-164.45"/>
</g>
<!-- context&#45;&gt;bundle -->
<g id="edge21" class="edge">
<title>context&#45;&gt;bundle</title>
<path fill="none" stroke="#64748b" stroke-width="1.3" stroke-dasharray="1,5" d="M542.3,-163.82C499.6,-167.87 439.76,-179.75 399.73,-213.5 393.19,-219.01 398.49,-225.76 391.73,-231 359.2,-256.25 313.68,-264.55 276.13,-266.51"/>
<polygon fill="#64748b" stroke="#64748b" stroke-width="1.3" points="276.13,-264.06 269.23,-266.78 276.33,-268.95 276.13,-264.06"/>
<text xml:space="preserve" text-anchor="middle" x="431.98" y="-218.45" font-family="PingFang SC" font-size="9.00">上下文预算</text>
</g>
<!-- context&#45;&gt;dag -->
<g id="edge17" class="edge">
<title>context&#45;&gt;dag</title>
<path fill="none" stroke="#64748b" stroke-width="1.3" d="M647.93,-162C706.67,-162 802.29,-162 864.57,-162"/>
<polygon fill="#64748b" stroke="#64748b" stroke-width="1.3" points="864.55,-164.45 871.55,-162 864.55,-159.55 864.55,-164.45"/>
</g>
<!-- safety -->
<g id="node16" class="node">
<title>safety</title>
<path fill="#ffffff" stroke="#cbd5e1" d="M1271.63,-180C1271.63,-180 1118.78,-180 1118.78,-180 1112.78,-180 1106.78,-174 1106.78,-168 1106.78,-168 1106.78,-156 1106.78,-156 1106.78,-150 1112.78,-144 1118.78,-144 1118.78,-144 1271.63,-144 1271.63,-144 1277.63,-144 1283.63,-150 1283.63,-156 1283.63,-156 1283.63,-168 1283.63,-168 1283.63,-174 1277.63,-180 1271.63,-180"/>
<text xml:space="preserve" text-anchor="middle" x="1195.2" y="-159.43" font-family="PingFang SC" font-size="11.00">Permission / Policy / Sandbox</text>
</g>
<!-- dag&#45;&gt;safety -->
<g id="edge18" class="edge">
<title>dag&#45;&gt;safety</title>
<path fill="none" stroke="#64748b" stroke-width="1.3" d="M979.64,-162C1013.1,-162 1057.6,-162 1097.41,-162"/>
<polygon fill="#64748b" stroke="#64748b" stroke-width="1.3" points="1097.38,-164.45 1104.38,-162 1097.38,-159.55 1097.38,-164.45"/>
</g>
<!-- safety&#45;&gt;timeline -->
<g id="edge19" class="edge">
<title>safety&#45;&gt;timeline</title>
<path fill="none" stroke="#64748b" stroke-width="1.3" d="M1283.88,-162C1298.58,-162 1313.55,-162 1327.39,-162"/>
<polygon fill="#64748b" stroke="#64748b" stroke-width="1.3" points="1327.34,-164.45 1334.34,-162 1327.34,-159.55 1327.34,-164.45"/>
</g>
</g>
</svg>
