<?xml version="1.0" encoding="UTF-8" standalone="no"?>
<!DOCTYPE svg PUBLIC "-//W3C//DTD SVG 1.1//EN"
 "http://www.w3.org/Graphics/SVG/1.1/DTD/svg11.dtd">
<!-- Generated by graphviz version 15.1.0 (20260618.0150)
 -->
<!-- Title: Sage V7.2 自我生长知识平台 Pages: 1 -->
<svg width="2444pt" height="1282pt"
 viewBox="0.00 0.00 2444.00 1282.00" xmlns="http://www.w3.org/2000/svg" xmlns:xlink="http://www.w3.org/1999/xlink">
<g id="graph0" class="graph" transform="scale(1 1) rotate(0) translate(25.2 1256.7)">
<title>Sage V7.2 自我生长知识平台</title>
<polygon fill="#f7f9fb" stroke="none" points="-25.2,25.2 -25.2,-1256.7 2419.25,-1256.7 2419.25,25.2 -25.2,25.2"/>
<text xml:space="preserve" text-anchor="middle" x="1197.03" y="-14.6" font-family="PingFang SC" font-size="22.00" fill="#2d3436">Sage V7.2 自我生长知识平台</text>
<g id="clust1" class="cluster">
<title>cluster_知识来源</title>
<path fill="#e5f5fd" stroke="#aeb6be" d="M20,-419.5C20,-419.5 112.8,-419.5 112.8,-419.5 118.8,-419.5 124.8,-425.5 124.8,-431.5 124.8,-431.5 124.8,-1107.5 124.8,-1107.5 124.8,-1113.5 118.8,-1119.5 112.8,-1119.5 112.8,-1119.5 20,-1119.5 20,-1119.5 14,-1119.5 8,-1113.5 8,-1107.5 8,-1107.5 8,-431.5 8,-431.5 8,-425.5 14,-419.5 20,-419.5"/>
<text xml:space="preserve" text-anchor="middle" x="40" y="-1104.1" font-family="Sans-Serif" font-size="12.00" fill="#2d3436">知识来源</text>
</g>
<g id="clust2" class="cluster">
<title>cluster_摄取与理解流水线</title>
<path fill="#e5f5fd" stroke="#aeb6be" d="M177.8,-665.5C177.8,-665.5 1179.05,-665.5 1179.05,-665.5 1185.05,-665.5 1191.05,-671.5 1191.05,-677.5 1191.05,-677.5 1191.05,-899.5 1191.05,-899.5 1191.05,-905.5 1185.05,-911.5 1179.05,-911.5 1179.05,-911.5 177.8,-911.5 177.8,-911.5 171.8,-911.5 165.8,-905.5 165.8,-899.5 165.8,-899.5 165.8,-677.5 165.8,-677.5 165.8,-671.5 171.8,-665.5 177.8,-665.5"/>
<text xml:space="preserve" text-anchor="middle" x="221.8" y="-896.1" font-family="Sans-Serif" font-size="12.00" fill="#2d3436">摄取与理解流水线</text>
</g>
<g id="clust3" class="cluster">
<title>cluster_可审核事实层</title>
<path fill="#e5f5fd" stroke="#aeb6be" d="M1342.8,-508.5C1342.8,-508.5 1681.65,-508.5 1681.65,-508.5 1687.65,-508.5 1693.65,-514.5 1693.65,-520.5 1693.65,-520.5 1693.65,-906.5 1693.65,-906.5 1693.65,-912.5 1687.65,-918.5 1681.65,-918.5 1681.65,-918.5 1342.8,-918.5 1342.8,-918.5 1336.8,-918.5 1330.8,-912.5 1330.8,-906.5 1330.8,-906.5 1330.8,-520.5 1330.8,-520.5 1330.8,-514.5 1336.8,-508.5 1342.8,-508.5"/>
<text xml:space="preserve" text-anchor="middle" x="1374.8" y="-903.1" font-family="Sans-Serif" font-size="12.00" fill="#2d3436">可审核事实层</text>
</g>
<g id="clust4" class="cluster">
<title>cluster_可重建检索投影</title>
<path fill="#e5f5fd" stroke="#aeb6be" d="M1828.9,-610.5C1828.9,-610.5 2140.75,-610.5 2140.75,-610.5 2146.75,-610.5 2152.75,-616.5 2152.75,-622.5 2152.75,-622.5 2152.75,-1211.5 2152.75,-1211.5 2152.75,-1217.5 2146.75,-1223.5 2140.75,-1223.5 2140.75,-1223.5 1828.9,-1223.5 1828.9,-1223.5 1822.9,-1223.5 1816.9,-1217.5 1816.9,-1211.5 1816.9,-1211.5 1816.9,-622.5 1816.9,-622.5 1816.9,-616.5 1822.9,-610.5 1828.9,-610.5"/>
<text xml:space="preserve" text-anchor="middle" x="1866.9" y="-1208.1" font-family="Sans-Serif" font-size="12.00" fill="#2d3436">可重建检索投影</text>
</g>
<g id="clust5" class="cluster">
<title>cluster_产品与 Agent</title>
<path fill="#e5f5fd" stroke="#aeb6be" d="M2047.95,-47.5C2047.95,-47.5 2374.05,-47.5 2374.05,-47.5 2380.05,-47.5 2386.05,-53.5 2386.05,-59.5 2386.05,-59.5 2386.05,-590.5 2386.05,-590.5 2386.05,-596.5 2380.05,-602.5 2374.05,-602.5 2374.05,-602.5 2047.95,-602.5 2047.95,-602.5 2041.95,-602.5 2035.95,-596.5 2035.95,-590.5 2035.95,-590.5 2035.95,-59.5 2035.95,-59.5 2035.95,-53.5 2041.95,-47.5 2047.95,-47.5"/>
<text xml:space="preserve" text-anchor="middle" x="2079.58" y="-587.1" font-family="Sans-Serif" font-size="12.00" fill="#2d3436">产品与 Agent</text>
</g>
<!-- 5b44334926024d82a1694156c95057e2 -->
<g id="node1" class="node">
<title>5b44334926024d82a1694156c95057e2</title>
<image xlink:href="/tmp/sage-diagrams-venv/lib/python3.13/site-packages/resources/generic/storage/storage.png" width="100.8px" height="100.8px" preserveAspectRatio="xMinYMin meet" x="16" y="-1067.9"/>
<text xml:space="preserve" text-anchor="middle" x="66.4" y="-954.95" font-family="PingFang SC" font-size="12.00" fill="#18222b">本地 / Obsidian</text>
</g>
<!-- d1eac030dd3e407e87496ab054607668 -->
<g id="node5" class="node">
<title>d1eac030dd3e407e87496ab054607668</title>
<image xlink:href="/tmp/sage-diagrams-venv/lib/python3.13/site-packages/resources/generic/compute/rack.png" width="100.8px" height="100.8px" preserveAspectRatio="xMinYMin meet" x="173.8" y="-806.9"/>
<text xml:space="preserve" text-anchor="middle" x="224.2" y="-696.8" font-family="PingFang SC" font-size="12.00" fill="#18222b">Source Adapter</text>
<text xml:space="preserve" text-anchor="middle" x="224.2" y="-679.55" font-family="PingFang SC" font-size="12.00" fill="#18222b">增量扫描 / 去重</text>
</g>
<!-- 5b44334926024d82a1694156c95057e2&#45;&gt;d1eac030dd3e407e87496ab054607668 -->
<g id="edge21" class="edge">
<title>5b44334926024d82a1694156c95057e2&#45;&gt;d1eac030dd3e407e87496ab054607668</title>
<path fill="none" stroke="#8d9aa6" d="M112.97,-949.4C117.03,-943.04 121.02,-936.67 124.8,-930.5 141.34,-903.46 158.6,-873.56 173.97,-846.29"/>
<polygon fill="#8d9aa6" stroke="#8d9aa6" points="176,-847.67 177.3,-840.37 171.73,-845.27 176,-847.67"/>
</g>
<!-- 9a9a47a968ce4768b5414a68d9aebea2 -->
<g id="node2" class="node">
<title>9a9a47a968ce4768b5414a68d9aebea2</title>
<image xlink:href="/tmp/sage-diagrams-venv/lib/python3.13/site-packages/resources/onprem/vcs/github.png" width="100.8px" height="100.8px" preserveAspectRatio="xMinYMin meet" x="16" y="-893.9"/>
<text xml:space="preserve" text-anchor="middle" x="66.4" y="-780.95" font-family="PingFang SC" font-size="12.00" fill="#18222b">GitHub 仓库</text>
</g>
<!-- 9a9a47a968ce4768b5414a68d9aebea2&#45;&gt;d1eac030dd3e407e87496ab054607668 -->
<g id="edge22" class="edge">
<title>9a9a47a968ce4768b5414a68d9aebea2&#45;&gt;d1eac030dd3e407e87496ab054607668</title>
<path fill="none" stroke="#8d9aa6" d="M116.7,-815.97C132.54,-807.12 150.23,-797.25 166.56,-788.13"/>
<polygon fill="#8d9aa6" stroke="#8d9aa6" points="167.72,-790.29 172.64,-784.74 165.33,-786.01 167.72,-790.29"/>
</g>
<!-- 2535aa819f8245b8aa3c4ce2db950a7b -->
<g id="node3" class="node">
<title>2535aa819f8245b8aa3c4ce2db950a7b</title>
<image xlink:href="/tmp/sage-diagrams-venv/lib/python3.13/site-packages/resources/onprem/client/client.png" width="100.8px" height="100.8px" preserveAspectRatio="xMinYMin meet" x="16" y="-719.9"/>
<text xml:space="preserve" text-anchor="middle" x="66.4" y="-606.95" font-family="PingFang SC" font-size="12.00" fill="#18222b">飞书文档</text>
</g>
<!-- 2535aa819f8245b8aa3c4ce2db950a7b&#45;&gt;d1eac030dd3e407e87496ab054607668 -->
<g id="edge23" class="edge">
<title>2535aa819f8245b8aa3c4ce2db950a7b&#45;&gt;d1eac030dd3e407e87496ab054607668</title>
<path fill="none" stroke="#8d9aa6" d="M116.7,-697.03C132.54,-705.88 150.23,-715.75 166.56,-724.87"/>
<polygon fill="#8d9aa6" stroke="#8d9aa6" points="165.33,-726.99 172.64,-728.26 167.72,-722.71 165.33,-726.99"/>
</g>
<!-- 62a8326cdde248e79aac2de52f8fc11a -->
<g id="node4" class="node">
<title>62a8326cdde248e79aac2de52f8fc11a</title>
<image xlink:href="/tmp/sage-diagrams-venv/lib/python3.13/site-packages/resources/generic/network/router.png" width="100.8px" height="100.8px" preserveAspectRatio="xMinYMin meet" x="16" y="-545.9"/>
<text xml:space="preserve" text-anchor="middle" x="66.4" y="-432.95" font-family="PingFang SC" font-size="12.00" fill="#18222b">网页 / API</text>
</g>
<!-- 62a8326cdde248e79aac2de52f8fc11a&#45;&gt;d1eac030dd3e407e87496ab054607668 -->
<g id="edge24" class="edge">
<title>62a8326cdde248e79aac2de52f8fc11a&#45;&gt;d1eac030dd3e407e87496ab054607668</title>
<path fill="none" stroke="#8d9aa6" d="M112.97,-563.6C117.03,-569.96 121.02,-576.33 124.8,-582.5 141.34,-609.54 158.6,-639.44 173.97,-666.71"/>
<polygon fill="#8d9aa6" stroke="#8d9aa6" points="171.73,-667.73 177.3,-672.63 176,-665.33 171.73,-667.73"/>
</g>
<!-- aa063d6a579546a8925ebebc3f2c99bb -->
<g id="node6" class="node">
<title>aa063d6a579546a8925ebebc3f2c99bb</title>
<image xlink:href="/tmp/sage-diagrams-venv/lib/python3.13/site-packages/resources/onprem/inmemory/redis.png" width="100.8px" height="100.8px" preserveAspectRatio="xMinYMin meet" x="440.85" y="-806.9"/>
<text xml:space="preserve" text-anchor="middle" x="491.25" y="-696.8" font-family="PingFang SC" font-size="12.00" fill="#18222b">Redis Streams</text>
<text xml:space="preserve" text-anchor="middle" x="491.25" y="-679.55" font-family="PingFang SC" font-size="12.00" fill="#18222b">持久任务队列</text>
</g>
<!-- d1eac030dd3e407e87496ab054607668&#45;&gt;aa063d6a579546a8925ebebc3f2c99bb -->
<g id="edge1" class="edge">
<title>d1eac030dd3e407e87496ab054607668&#45;&gt;aa063d6a579546a8925ebebc3f2c99bb</title>
<path fill="none" stroke="#8d9aa6" d="M274.43,-756.5C319.34,-756.5 385.72,-756.5 432.98,-756.5"/>
<polygon fill="#8d9aa6" stroke="#8d9aa6" points="432.77,-758.95 439.77,-756.5 432.77,-754.05 432.77,-758.95"/>
<text xml:space="preserve" text-anchor="middle" x="357.73" y="-757.65" font-family="Sans-Serif" font-size="13.00" fill="#2d3436">job + content hash</text>
</g>
<!-- 86afdcc034f34c32b9fd98f5f97256d2 -->
<g id="node7" class="node">
<title>86afdcc034f34c32b9fd98f5f97256d2</title>
<image xlink:href="/tmp/sage-diagrams-venv/lib/python3.13/site-packages/resources/generic/compute/rack.png" width="100.8px" height="100.8px" preserveAspectRatio="xMinYMin meet" x="666.65" y="-806.9"/>
<text xml:space="preserve" text-anchor="middle" x="717.05" y="-696.8" font-family="PingFang SC" font-size="12.00" fill="#18222b">Parser / MinerU</text>
<text xml:space="preserve" text-anchor="middle" x="717.05" y="-679.55" font-family="PingFang SC" font-size="12.00" fill="#18222b">结构与版面解析</text>
</g>
<!-- aa063d6a579546a8925ebebc3f2c99bb&#45;&gt;86afdcc034f34c32b9fd98f5f97256d2 -->
<g id="edge2" class="edge">
<title>aa063d6a579546a8925ebebc3f2c99bb&#45;&gt;86afdcc034f34c32b9fd98f5f97256d2</title>
<path fill="none" stroke="#8d9aa6" d="M541.64,-756.5C576.08,-756.5 622.15,-756.5 658.3,-756.5"/>
<polygon fill="#8d9aa6" stroke="#8d9aa6" points="658.27,-758.95 665.27,-756.5 658.27,-754.05 658.27,-758.95"/>
<text xml:space="preserve" text-anchor="middle" x="604.15" y="-757.65" font-family="Sans-Serif" font-size="13.00" fill="#2d3436">claim / retry</text>
</g>
<!-- 140d20c478324d418c67c9b1d262f1fe -->
<g id="node8" class="node">
<title>140d20c478324d418c67c9b1d262f1fe</title>
<image xlink:href="/tmp/sage-diagrams-venv/lib/python3.13/site-packages/resources/generic/compute/rack.png" width="100.8px" height="100.8px" preserveAspectRatio="xMinYMin meet" x="874.45" y="-845.9"/>
<text xml:space="preserve" text-anchor="middle" x="924.85" y="-735.8" font-family="PingFang SC" font-size="12.00" fill="#18222b">Qwen3&#45;VL</text>
<text xml:space="preserve" text-anchor="middle" x="924.85" y="-718.55" font-family="PingFang SC" font-size="12.00" fill="#18222b">图片 / 表格理解</text>
</g>
<!-- 86afdcc034f34c32b9fd98f5f97256d2&#45;&gt;140d20c478324d418c67c9b1d262f1fe -->
<g id="edge3" class="edge">
<title>86afdcc034f34c32b9fd98f5f97256d2&#45;&gt;140d20c478324d418c67c9b1d262f1fe</title>
<path fill="none" stroke="#8d9aa6" d="M767.34,-765.84C797.14,-771.49 835.27,-778.71 866.43,-784.62"/>
<polygon fill="#8d9aa6" stroke="#8d9aa6" points="865.78,-786.99 873.11,-785.89 866.69,-782.17 865.78,-786.99"/>
<text xml:space="preserve" text-anchor="middle" x="820.95" y="-787.04" font-family="Sans-Serif" font-size="13.00" fill="#2d3436">复杂页面</text>
</g>
<!-- 85e3732ec1d7433e95c995db4d5f66a7 -->
<g id="node9" class="node">
<title>85e3732ec1d7433e95c995db4d5f66a7</title>
<image xlink:href="/tmp/sage-diagrams-venv/lib/python3.13/site-packages/resources/generic/compute/rack.png" width="100.8px" height="100.8px" preserveAspectRatio="xMinYMin meet" x="1082.25" y="-845.9"/>
<text xml:space="preserve" text-anchor="middle" x="1132.65" y="-735.8" font-family="PingFang SC" font-size="12.00" fill="#18222b">Wiki Synthesizer</text>
<text xml:space="preserve" text-anchor="middle" x="1132.65" y="-718.55" font-family="PingFang SC" font-size="12.00" fill="#18222b">摘要 / 实体 / 关系</text>
</g>
<!-- 86afdcc034f34c32b9fd98f5f97256d2&#45;&gt;85e3732ec1d7433e95c995db4d5f66a7 -->
<g id="edge4" class="edge">
<title>86afdcc034f34c32b9fd98f5f97256d2&#45;&gt;85e3732ec1d7433e95c995db4d5f66a7</title>
<path fill="none" stroke="#8d9aa6" d="M767.27,-729.28C819.32,-704.06 903.66,-673.39 975.25,-694.5 1011.7,-705.25 1047.66,-727.43 1075.89,-748.27"/>
<polygon fill="#8d9aa6" stroke="#8d9aa6" points="1074.25,-750.1 1081.32,-752.34 1077.19,-746.18 1074.25,-750.1"/>
</g>
<!-- 55ef9e5af15e44fb9fa3d4f917f46229 -->
<g id="node13" class="node">
<title>55ef9e5af15e44fb9fa3d4f917f46229</title>
<image xlink:href="/tmp/sage-diagrams-venv/lib/python3.13/site-packages/resources/generic/storage/storage.png" width="100.8px" height="100.8px" preserveAspectRatio="xMinYMin meet" x="1338.8" y="-649.9"/>
<text xml:space="preserve" text-anchor="middle" x="1389.2" y="-539.8" font-family="PingFang SC" font-size="12.00" fill="#18222b">对象存储</text>
<text xml:space="preserve" text-anchor="middle" x="1389.2" y="-522.55" font-family="PingFang SC" font-size="12.00" fill="#18222b">原始文件 / 媒体</text>
</g>
<!-- 86afdcc034f34c32b9fd98f5f97256d2&#45;&gt;55ef9e5af15e44fb9fa3d4f917f46229 -->
<g id="edge9" class="edge">
<title>86afdcc034f34c32b9fd98f5f97256d2&#45;&gt;55ef9e5af15e44fb9fa3d4f917f46229</title>
<path fill="none" stroke="#8d9aa6" d="M767.31,-707.76C776.13,-701.08 785.65,-694.98 795.45,-690.5 977.91,-607 1221.6,-597.65 1330.91,-598.13"/>
<polygon fill="#8d9aa6" stroke="#8d9aa6" points="1330.65,-600.57 1337.66,-598.17 1330.68,-595.67 1330.65,-600.57"/>
<text xml:space="preserve" text-anchor="middle" x="1028.75" y="-632.82" font-family="Sans-Serif" font-size="13.00" fill="#2d3436">原件归档</text>
</g>
<!-- 140d20c478324d418c67c9b1d262f1fe&#45;&gt;85e3732ec1d7433e95c995db4d5f66a7 -->
<g id="edge5" class="edge">
<title>140d20c478324d418c67c9b1d262f1fe&#45;&gt;85e3732ec1d7433e95c995db4d5f66a7</title>
<path fill="none" stroke="#8d9aa6" d="M975.14,-795.5C1004.94,-795.5 1043.07,-795.5 1074.23,-795.5"/>
<polygon fill="#8d9aa6" stroke="#8d9aa6" points="1073.89,-797.95 1080.89,-795.5 1073.89,-793.05 1073.89,-797.95"/>
</g>
<!-- 3d27f1ca625a4fba91cdb74a0e2c5d10 -->
<g id="node10" class="node">
<title>3d27f1ca625a4fba91cdb74a0e2c5d10</title>
<image xlink:href="/tmp/sage-diagrams-venv/lib/python3.13/site-packages/resources/generic/compute/rack.png" width="100.8px" height="100.8px" preserveAspectRatio="xMinYMin meet" x="1338.8" y="-852.9"/>
<text xml:space="preserve" text-anchor="middle" x="1389.2" y="-742.8" font-family="PingFang SC" font-size="12.00" fill="#18222b">Autonomy Policy</text>
<text xml:space="preserve" text-anchor="middle" x="1389.2" y="-725.55" font-family="PingFang SC" font-size="12.00" fill="#18222b">自动 / 摘要 / 确认 / 阻断</text>
</g>
<!-- 85e3732ec1d7433e95c995db4d5f66a7&#45;&gt;3d27f1ca625a4fba91cdb74a0e2c5d10 -->
<g id="edge6" class="edge">
<title>85e3732ec1d7433e95c995db4d5f66a7&#45;&gt;3d27f1ca625a4fba91cdb74a0e2c5d10</title>
<path fill="none" stroke="#8d9aa6" d="M1183.03,-796.86C1225.27,-798.02 1286.12,-799.69 1330.57,-800.92"/>
<polygon fill="#8d9aa6" stroke="#8d9aa6" points="1330.38,-803.36 1337.44,-801.1 1330.51,-798.46 1330.38,-803.36"/>
<text xml:space="preserve" text-anchor="middle" x="1260.93" y="-801.39" font-family="Sans-Serif" font-size="13.00" fill="#2d3436">change proposal</text>
</g>
<!-- 32389dcffba94750991c941457b35840 -->
<g id="node11" class="node">
<title>32389dcffba94750991c941457b35840</title>
<image xlink:href="/tmp/sage-diagrams-venv/lib/python3.13/site-packages/resources/onprem/vcs/github.png" width="100.8px" height="100.8px" preserveAspectRatio="xMinYMin meet" x="1584.85" y="-852.9"/>
<text xml:space="preserve" text-anchor="middle" x="1635.25" y="-742.8" font-family="PingFang SC" font-size="12.00" fill="#18222b">Git Wiki</text>
<text xml:space="preserve" text-anchor="middle" x="1635.25" y="-725.55" font-family="PingFang SC" font-size="12.00" fill="#18222b">Markdown 真相源</text>
</g>
<!-- 3d27f1ca625a4fba91cdb74a0e2c5d10&#45;&gt;32389dcffba94750991c941457b35840 -->
<g id="edge7" class="edge">
<title>3d27f1ca625a4fba91cdb74a0e2c5d10&#45;&gt;32389dcffba94750991c941457b35840</title>
<path fill="none" stroke="#8d9aa6" d="M1439.59,-802.5C1479.2,-802.5 1534.87,-802.5 1576.53,-802.5"/>
<polygon fill="#8d9aa6" stroke="#8d9aa6" points="1576.42,-804.95 1583.42,-802.5 1576.42,-800.05 1576.42,-804.95"/>
<text xml:space="preserve" text-anchor="middle" x="1512.23" y="-808.9" font-family="Sans-Serif" font-size="13.00" fill="#2d3436">低风险自动应用</text>
</g>
<!-- 4b708049c8494113b0b9a4de42d69963 -->
<g id="node12" class="node">
<title>4b708049c8494113b0b9a4de42d69963</title>
<image xlink:href="/tmp/sage-diagrams-venv/lib/python3.13/site-packages/resources/onprem/database/postgresql.png" width="100.8px" height="100.8px" preserveAspectRatio="xMinYMin meet" x="1584.85" y="-649.9"/>
<text xml:space="preserve" text-anchor="middle" x="1635.25" y="-539.8" font-family="PingFang SC" font-size="12.00" fill="#18222b">PostgreSQL</text>
<text xml:space="preserve" text-anchor="middle" x="1635.25" y="-522.55" font-family="PingFang SC" font-size="12.00" fill="#18222b">版本 / 来源 / 审计</text>
</g>
<!-- 3d27f1ca625a4fba91cdb74a0e2c5d10&#45;&gt;4b708049c8494113b0b9a4de42d69963 -->
<g id="edge8" class="edge">
<title>3d27f1ca625a4fba91cdb74a0e2c5d10&#45;&gt;4b708049c8494113b0b9a4de42d69963</title>
<path fill="none" stroke="#8d9aa6" d="M1439.59,-761.42C1479.86,-727.92 1536.73,-680.61 1578.61,-645.78"/>
<polygon fill="#8d9aa6" stroke="#8d9aa6" points="1579.96,-647.85 1583.77,-641.49 1576.82,-644.08 1579.96,-647.85"/>
<text xml:space="preserve" text-anchor="middle" x="1512.23" y="-743.24" font-family="Sans-Serif" font-size="13.00" fill="#2d3436">版本与撤销链</text>
</g>
<!-- e46e62766be9439bb7db72235839fbeb -->
<g id="node14" class="node">
<title>e46e62766be9439bb7db72235839fbeb</title>
<image xlink:href="/tmp/sage-diagrams-venv/lib/python3.13/site-packages/resources/onprem/database/postgresql.png" width="100.8px" height="100.8px" preserveAspectRatio="xMinYMin meet" x="1824.9" y="-954.9"/>
<text xml:space="preserve" text-anchor="middle" x="1875.3" y="-844.8" font-family="PingFang SC" font-size="12.00" fill="#18222b">PostgreSQL FTS</text>
<text xml:space="preserve" text-anchor="middle" x="1875.3" y="-827.55" font-family="PingFang SC" font-size="12.00" fill="#18222b">关键词检索</text>
</g>
<!-- 32389dcffba94750991c941457b35840&#45;&gt;e46e62766be9439bb7db72235839fbeb -->
<g id="edge10" class="edge">
<title>32389dcffba94750991c941457b35840&#45;&gt;e46e62766be9439bb7db72235839fbeb</title>
<path fill="none" stroke="#8d9aa6" d="M1685.57,-823.63C1724.04,-840.11 1777.49,-863.02 1817.69,-880.24"/>
<polygon fill="#8d9aa6" stroke="#8d9aa6" points="1816.25,-882.29 1823.65,-882.8 1818.18,-877.79 1816.25,-882.29"/>
<text xml:space="preserve" text-anchor="middle" x="1755.28" y="-869.75" font-family="Sans-Serif" font-size="13.00" fill="#2d3436">chunk + index</text>
</g>
<!-- c34bec1f8dba4823b9ad2a4cd37e40b5 -->
<g id="node15" class="node">
<title>c34bec1f8dba4823b9ad2a4cd37e40b5</title>
<image xlink:href="/tmp/sage-diagrams-venv/lib/python3.13/site-packages/resources/generic/database/sql.png" width="100.8px" height="100.8px" preserveAspectRatio="xMinYMin meet" x="1824.9" y="-751.9"/>
<text xml:space="preserve" text-anchor="middle" x="1875.3" y="-641.8" font-family="PingFang SC" font-size="12.00" fill="#18222b">Qdrant</text>
<text xml:space="preserve" text-anchor="middle" x="1875.3" y="-624.55" font-family="PingFang SC" font-size="12.00" fill="#18222b">向量检索</text>
</g>
<!-- 32389dcffba94750991c941457b35840&#45;&gt;c34bec1f8dba4823b9ad2a4cd37e40b5 -->
<g id="edge11" class="edge">
<title>32389dcffba94750991c941457b35840&#45;&gt;c34bec1f8dba4823b9ad2a4cd37e40b5</title>
<path fill="none" stroke="#8d9aa6" d="M1685.57,-781.57C1724.04,-765.25 1777.49,-742.57 1817.69,-725.52"/>
<polygon fill="#8d9aa6" stroke="#8d9aa6" points="1818.16,-727.98 1823.65,-722.99 1816.24,-723.47 1818.16,-727.98"/>
</g>
<!-- 1550c6c561c14dad920b997baae441d0 -->
<g id="node16" class="node">
<title>1550c6c561c14dad920b997baae441d0</title>
<image xlink:href="/tmp/sage-diagrams-venv/lib/python3.13/site-packages/resources/generic/database/sql.png" width="100.8px" height="100.8px" preserveAspectRatio="xMinYMin meet" x="1824.9" y="-1157.9"/>
<text xml:space="preserve" text-anchor="middle" x="1875.3" y="-1047.8" font-family="PingFang SC" font-size="12.00" fill="#18222b">Graph Tables</text>
<text xml:space="preserve" text-anchor="middle" x="1875.3" y="-1030.55" font-family="PingFang SC" font-size="12.00" fill="#18222b">实体 / 关系</text>
</g>
<!-- 32389dcffba94750991c941457b35840&#45;&gt;1550c6c561c14dad920b997baae441d0 -->
<g id="edge12" class="edge">
<title>32389dcffba94750991c941457b35840&#45;&gt;1550c6c561c14dad920b997baae441d0</title>
<path fill="none" stroke="#8d9aa6" d="M1685.57,-865.7C1724.75,-915.89 1779.49,-986.03 1819.93,-1037.84"/>
<polygon fill="#8d9aa6" stroke="#8d9aa6" points="1817.87,-1039.18 1824.11,-1043.19 1821.73,-1036.17 1817.87,-1039.18"/>
</g>
<!-- 7839a71af0c04686852ad9feb06cc970 -->
<g id="node19" class="node">
<title>7839a71af0c04686852ad9feb06cc970</title>
<image xlink:href="/tmp/sage-diagrams-venv/lib/python3.13/site-packages/resources/onprem/client/client.png" width="100.8px" height="100.8px" preserveAspectRatio="xMinYMin meet" x="2277.25" y="-376.9"/>
<text xml:space="preserve" text-anchor="middle" x="2327.65" y="-263.95" font-family="PingFang SC" font-size="12.00" fill="#18222b">Knowledge Workbench</text>
</g>
<!-- 4b708049c8494113b0b9a4de42d69963&#45;&gt;7839a71af0c04686852ad9feb06cc970 -->
<g id="edge26" class="edge">
<title>4b708049c8494113b0b9a4de42d69963&#45;&gt;7839a71af0c04686852ad9feb06cc970</title>
<path fill="none" stroke="#8d9aa6" stroke-dasharray="5,2" d="M1685.47,-567.01C1758.8,-520.06 1902.47,-433.6 2035.95,-385.5 2114.26,-357.28 2209.58,-341.17 2269.21,-333.13"/>
<polygon fill="#8d9aa6" stroke="#8d9aa6" points="2269.26,-335.6 2275.88,-332.25 2268.62,-330.74 2269.26,-335.6"/>
<text xml:space="preserve" text-anchor="middle" x="1984.83" y="-424.14" font-family="Sans-Serif" font-size="13.00" fill="#2d3436">审核 / 回滚</text>
</g>
<!-- 55ef9e5af15e44fb9fa3d4f917f46229&#45;&gt;4b708049c8494113b0b9a4de42d69963 -->
<g id="edge25" class="edge">
<title>55ef9e5af15e44fb9fa3d4f917f46229&#45;&gt;4b708049c8494113b0b9a4de42d69963</title>
<path fill="none" stroke="#8d9aa6" stroke-dasharray="5,2" d="M1439.59,-599.5C1479.2,-599.5 1534.87,-599.5 1576.53,-599.5"/>
<polygon fill="#8d9aa6" stroke="#8d9aa6" points="1576.42,-601.95 1583.42,-599.5 1576.42,-597.05 1576.42,-601.95"/>
<text xml:space="preserve" text-anchor="middle" x="1512.23" y="-600.65" font-family="Sans-Serif" font-size="13.00" fill="#2d3436">provenance</text>
</g>
<!-- 34e9cfe3e1ec4e02abf427c4e4a36fd6 -->
<g id="node18" class="node">
<title>34e9cfe3e1ec4e02abf427c4e4a36fd6</title>
<image xlink:href="/tmp/sage-diagrams-venv/lib/python3.13/site-packages/resources/generic/compute/rack.png" width="100.8px" height="100.8px" preserveAspectRatio="xMinYMin meet" x="2043.95" y="-536.9"/>
<text xml:space="preserve" text-anchor="middle" x="2094.35" y="-426.8" font-family="PingFang SC" font-size="12.00" fill="#18222b">Agentic RAG</text>
<text xml:space="preserve" text-anchor="middle" x="2094.35" y="-409.55" font-family="PingFang SC" font-size="12.00" fill="#18222b">Hybrid + RRF + 引用</text>
</g>
<!-- e46e62766be9439bb7db72235839fbeb&#45;&gt;34e9cfe3e1ec4e02abf427c4e4a36fd6 -->
<g id="edge14" class="edge">
<title>e46e62766be9439bb7db72235839fbeb&#45;&gt;34e9cfe3e1ec4e02abf427c4e4a36fd6</title>
<path fill="none" stroke="#8d9aa6" d="M1919.18,-821.92C1955.91,-751.18 2008.71,-649.51 2046.53,-576.67"/>
<polygon fill="#8d9aa6" stroke="#8d9aa6" points="2048.62,-577.95 2049.67,-570.61 2044.27,-575.7 2048.62,-577.95"/>
</g>
<!-- c34bec1f8dba4823b9ad2a4cd37e40b5&#45;&gt;34e9cfe3e1ec4e02abf427c4e4a36fd6 -->
<g id="edge15" class="edge">
<title>c34bec1f8dba4823b9ad2a4cd37e40b5&#45;&gt;34e9cfe3e1ec4e02abf427c4e4a36fd6</title>
<path fill="none" stroke="#8d9aa6" d="M1925.55,-652.71C1959.13,-619.45 2003.63,-575.37 2038.37,-540.96"/>
<polygon fill="#8d9aa6" stroke="#8d9aa6" points="2039.97,-542.83 2043.22,-536.16 2036.52,-539.34 2039.97,-542.83"/>
</g>
<!-- 718c24b72f7d43a2907b8f7820a45009 -->
<g id="node17" class="node">
<title>718c24b72f7d43a2907b8f7820a45009</title>
<image xlink:href="/tmp/sage-diagrams-venv/lib/python3.13/site-packages/resources/generic/compute/rack.png" width="100.8px" height="100.8px" preserveAspectRatio="xMinYMin meet" x="2043.95" y="-954.9"/>
<text xml:space="preserve" text-anchor="middle" x="2094.35" y="-844.8" font-family="PingFang SC" font-size="12.00" fill="#18222b">Louvain</text>
<text xml:space="preserve" text-anchor="middle" x="2094.35" y="-827.55" font-family="PingFang SC" font-size="12.00" fill="#18222b">社区与主题</text>
</g>
<!-- 1550c6c561c14dad920b997baae441d0&#45;&gt;718c24b72f7d43a2907b8f7820a45009 -->
<g id="edge13" class="edge">
<title>1550c6c561c14dad920b997baae441d0&#45;&gt;718c24b72f7d43a2907b8f7820a45009</title>
<path fill="none" stroke="#8d9aa6" d="M1925.55,-1061.44C1959.13,-1030.03 2003.63,-988.41 2038.37,-955.92"/>
<polygon fill="#8d9aa6" stroke="#8d9aa6" points="2039.75,-957.99 2043.19,-951.42 2036.4,-954.41 2039.75,-957.99"/>
</g>
<!-- 1550c6c561c14dad920b997baae441d0&#45;&gt;34e9cfe3e1ec4e02abf427c4e4a36fd6 -->
<g id="edge16" class="edge">
<title>1550c6c561c14dad920b997baae441d0&#45;&gt;34e9cfe3e1ec4e02abf427c4e4a36fd6</title>
<path fill="none" stroke="#8d9aa6" d="M1917.59,-1024.71C1920.44,-1018.26 1923.18,-1011.8 1925.7,-1005.5 1974.56,-883.31 1985.17,-851.44 2015.95,-723.5 2028.8,-670.08 2019.05,-653.78 2035.95,-601.5 2038.58,-593.37 2041.7,-585.11 2045.12,-576.93"/>
<polygon fill="#8d9aa6" stroke="#8d9aa6" points="2047.36,-577.9 2047.87,-570.5 2042.86,-575.97 2047.36,-577.9"/>
</g>
<!-- 718c24b72f7d43a2907b8f7820a45009&#45;&gt;7839a71af0c04686852ad9feb06cc970 -->
<g id="edge17" class="edge">
<title>718c24b72f7d43a2907b8f7820a45009&#45;&gt;7839a71af0c04686852ad9feb06cc970</title>
<path fill="none" stroke="#8d9aa6" d="M2124.1,-821.97C2165.98,-702.65 2242.54,-488.09 2277.25,-413.5 2278.99,-409.76 2280.84,-405.96 2282.75,-402.15"/>
<polygon fill="#8d9aa6" stroke="#8d9aa6" points="2284.8,-403.51 2285.81,-396.17 2280.44,-401.28 2284.8,-403.51"/>
</g>
<!-- 34e9cfe3e1ec4e02abf427c4e4a36fd6&#45;&gt;7839a71af0c04686852ad9feb06cc970 -->
<g id="edge19" class="edge">
<title>34e9cfe3e1ec4e02abf427c4e4a36fd6&#45;&gt;7839a71af0c04686852ad9feb06cc970</title>
<path fill="none" stroke="#8d9aa6" d="M2144.45,-480.97C2182.91,-475.85 2232.6,-467.25 2249.25,-455.5 2252.2,-453.42 2267.05,-429.05 2282.97,-402.04"/>
<polygon fill="#8d9aa6" stroke="#8d9aa6" points="2285.05,-403.34 2286.49,-396.06 2280.83,-400.85 2285.05,-403.34"/>
</g>
<!-- bf470f35c6f847d7bbfb95be2a0227f9 -->
<g id="node20" class="node">
<title>bf470f35c6f847d7bbfb95be2a0227f9</title>
<image xlink:href="/tmp/sage-diagrams-venv/lib/python3.13/site-packages/resources/onprem/client/client.png" width="100.8px" height="100.8px" preserveAspectRatio="xMinYMin meet" x="2277.25" y="-550.9"/>
<text xml:space="preserve" text-anchor="middle" x="2327.65" y="-437.95" font-family="PingFang SC" font-size="12.00" fill="#18222b">Sage 对话</text>
</g>
<!-- 34e9cfe3e1ec4e02abf427c4e4a36fd6&#45;&gt;bf470f35c6f847d7bbfb95be2a0227f9 -->
<g id="edge18" class="edge">
<title>34e9cfe3e1ec4e02abf427c4e4a36fd6&#45;&gt;bf470f35c6f847d7bbfb95be2a0227f9</title>
<path fill="none" stroke="#8d9aa6" d="M2144.69,-489.49C2181.07,-491.69 2230.69,-494.69 2268.92,-497.01"/>
<polygon fill="#8d9aa6" stroke="#8d9aa6" points="2268.74,-499.45 2275.88,-497.43 2269.04,-494.56 2268.74,-499.45"/>
</g>
<!-- 8732bf9d3d184d14871daaa40d059767 -->
<g id="node21" class="node">
<title>8732bf9d3d184d14871daaa40d059767</title>
<image xlink:href="/tmp/sage-diagrams-venv/lib/python3.13/site-packages/resources/onprem/client/user.png" width="100.8px" height="100.8px" preserveAspectRatio="xMinYMin meet" x="2277.25" y="-188.9"/>
<text xml:space="preserve" text-anchor="middle" x="2327.65" y="-78.8" font-family="PingFang SC" font-size="12.00" fill="#18222b">HR 公开助手</text>
<text xml:space="preserve" text-anchor="middle" x="2327.65" y="-61.55" font-family="PingFang SC" font-size="12.00" fill="#18222b">独立公开知识库</text>
</g>
<!-- 34e9cfe3e1ec4e02abf427c4e4a36fd6&#45;&gt;8732bf9d3d184d14871daaa40d059767 -->
<g id="edge20" class="edge">
<title>34e9cfe3e1ec4e02abf427c4e4a36fd6&#45;&gt;8732bf9d3d184d14871daaa40d059767</title>
<path fill="none" stroke="#e46755" d="M2144.69,-412.27C2182.3,-355.69 2234.04,-277.84 2272.74,-219.61"/>
<polygon fill="#e46755" stroke="#e46755" points="2274.72,-221.06 2276.55,-213.87 2270.64,-218.35 2274.72,-221.06"/>
<text xml:space="preserve" text-anchor="middle" x="2211" y="-370.4" font-family="Sans-Serif" font-size="13.00" fill="#2d3436">仅已发布资料</text>
</g>
</g>
</svg>
